<?xml version="1.0" encoding="utf-8"?>
<!-- Generator: Adobe Illustrator 16.0.0, SVG Export Plug-In . SVG Version: 6.00 Build 0)  -->
<!DOCTYPE svg PUBLIC "-//W3C//DTD SVG 1.1 Tiny//EN" "http://www.w3.org/Graphics/SVG/1.1/DTD/svg11-tiny.dtd">
<svg version="1.1" baseProfile="tiny" xmlns="http://www.w3.org/2000/svg" xmlns:xlink="http://www.w3.org/1999/xlink" x="0px"
	 y="0px" width="855.1px" height="601px" viewBox="0 0 855.1 601" xml:space="preserve">
<g id="Achtergrond">
	<rect width="855.1" height="601"/>
</g>
<g id="Bos">
	<g>
		<polygon fill="#416930" points="363.7,257.2 377.7,260.7 389.9,280 403,297.3 412.7,307 420.3,324.7 423.7,342.2 427,356.3 
			433,372.7 437.5,384.9 415,398 396.3,409.1 392,413.5 393,420 378.6,413.5 366.1,381.3 356.2,342.2 356.2,310.5 		"/>
		<polygon fill="#416930" points="400,453.3 409.2,450 434.3,501.3 423.7,508.5 		"/>
		<polygon fill="#416930" points="417,514 304.3,498.7 301.7,506.3 413.7,524 		"/>
		<circle fill="#416930" cx="442" cy="524" r="24"/>
		<polygon fill="#416930" points="688.9,255.3 735.5,262.1 738.9,252.2 748.7,257.3 760.3,268.1 769.5,256.2 784.7,249.2 809,321.8 
			804.8,354.3 793.7,378.3 785.5,384.9 762.5,371.5 747.5,364 765.5,326 749,319 747.5,321.8 725.5,326 725.3,317.1 712.9,320.5 
			694.5,321.8 681,321.8 681,310 683.7,288.5 682.6,268.1 		"/>
	</g>
</g>
<g id="Water">
	<path fill="#007A87" d="M853.1,0l2.9,3.3c0,0-122.6,60-155.5,67.3s-69.2-2-78,1.3S589,75.3,575,75.3s-91.3-10-91.3-10l-60-12.7
		l-49.3-24c0,0-24,0-31.3,0s-61.3-15.3-61.3-15.3L241.7,0H71.4l100.9,62.5l65.2,47l41.7,22.8c0,0,4.3-4.3,8.2-4.9
		c2.4,5.9,1.6,26.6,0,28.4s-7.4,1.2-9.9,1s-28-10.3-34-12.8s-31.7-21.2-31.7-21.2l-22,22c0,0,44.2,46.3,48.2,50.6
		s25.5,24.2,25.5,24.2l32.5,9.9c0,0,15-34.9,17-41.6s-2-17.3-4.1-24.3s0-21.4,0-21.4s7.1-7.1,13.6-6.6s16,10,20.2,14.2
		s21.8,8.8,26,9.8s102.6,18,102.6,18s52.6,8,72.2,10.5s82.8,14.5,93.8,16.7s69,15.8,69,15.8l-3.3,7.6l26.8,4.7
		c0,0,24.2,4.9,28.4,5.3s4.6-9.1,3.6-15.9s-3.6-7.2-3.6-7.2l-26.4-4.5l-22.7-5.8c0,0-39.8-8.7-43.3-9.3s-2-6.8,0-7.3s9,4.2,9,4.2
		l11,3.1l29.5,4.7c0,0,14-2,11.5,0s-1.5-13-1.5-13s-2-10,2.3-11.2s5.8,6.8,5.8,6.8v20.2l45,5.8l6.7-1.9c0,0,6.8-3.6,7.2-9.9
		S789,170,786,162s3-7.5,4.3-4.7l8.8,26.7l3.4,26.5l7,14c0,0,14.5,37.5,16.6,47.2s19.5,24.3,30,35.7l0-304"/>
</g>
<g id="Straten">
	
		<line fill="none" stroke="#434445" stroke-width="2" stroke-linecap="round" stroke-linejoin="round" stroke-miterlimit="10" x1="487.7" y1="342.2" x2="483" y2="347.9"/>
	
		<line fill="none" stroke="#434445" stroke-width="2" stroke-linecap="round" stroke-linejoin="round" stroke-miterlimit="10" x1="719.3" y1="471.1" x2="713" y2="489.7"/>
	<g>
		
			<line fill="none" stroke="#434445" stroke-width="2" stroke-linecap="round" stroke-linejoin="round" stroke-miterlimit="10" x1="703.2" y1="401.8" x2="715.5" y2="416.5"/>
		
			<polyline fill="none" stroke="#434445" stroke-width="2" stroke-linecap="round" stroke-linejoin="round" stroke-miterlimit="10" points="
			706.5,394.5 692.3,389.7 694.5,381.3 683.7,372.7 		"/>
		
			<polyline fill="none" stroke="#434445" stroke-width="2" stroke-linecap="round" stroke-linejoin="round" stroke-miterlimit="10" points="
			694.5,381.3 700.6,375.2 703.2,366.5 706.5,356.3 706.5,342.2 		"/>
	</g>
	
		<line fill="none" stroke="#434445" stroke-width="2" stroke-linecap="round" stroke-linejoin="round" stroke-miterlimit="10" x1="661.1" y1="356.3" x2="683.7" y2="366.5"/>
	
		<line fill="none" stroke="#434445" stroke-width="2" stroke-linecap="round" stroke-linejoin="round" stroke-miterlimit="10" x1="648.5" y1="395.2" x2="612.6" y2="383.6"/>
	<g>
		
			<line fill="none" stroke="#434445" stroke-width="2" stroke-linecap="round" stroke-linejoin="round" stroke-miterlimit="10" x1="194.8" y1="312.8" x2="205.7" y2="317.3"/>
		
			<line fill="none" stroke="#434445" stroke-width="2" stroke-linecap="round" stroke-linejoin="round" stroke-miterlimit="10" x1="184.8" y1="349.6" x2="194.8" y2="356"/>
		
			<line fill="none" stroke="#434445" stroke-width="2" stroke-linecap="round" stroke-linejoin="round" stroke-miterlimit="10" x1="165.7" y1="377.3" x2="184.8" y2="384.7"/>
		
			<line fill="none" stroke="#434445" stroke-width="2" stroke-linecap="round" stroke-linejoin="round" stroke-miterlimit="10" x1="154.3" y1="409.3" x2="167.4" y2="413.5"/>
		
			<line fill="none" stroke="#434445" stroke-width="2" stroke-linecap="round" stroke-linejoin="round" stroke-miterlimit="10" x1="165.7" y1="419.7" x2="175.2" y2="424.9"/>
	</g>
	
		<polyline fill="none" stroke="#434445" stroke-width="2" stroke-linecap="round" stroke-linejoin="round" stroke-miterlimit="10" points="
		290.3,260.3 292.6,248.2 296,236.7 	"/>
	<g>
		
			<polyline fill="none" stroke="#434445" stroke-width="2" stroke-linecap="round" stroke-linejoin="round" stroke-miterlimit="10" points="
			459.2,445.5 461.7,443 468.3,434.4 		"/>
		
			<line fill="none" stroke="#434445" stroke-width="2" stroke-linecap="round" stroke-linejoin="round" stroke-miterlimit="10" x1="468.3" y1="453.3" x2="474.5" y2="445.5"/>
		
			<polyline fill="none" stroke="#434445" stroke-width="2" stroke-linecap="round" stroke-linejoin="round" stroke-miterlimit="10" points="
			461.7,340.7 452.3,356.3 446.9,361.7 442.1,366.5 431.4,368.4 		"/>
		
			<polyline fill="none" stroke="#434445" stroke-width="2" stroke-linecap="round" stroke-linejoin="round" stroke-miterlimit="10" points="
			452.3,359.9 463.7,368.4 470.5,375.2 		"/>
		
			<line fill="none" stroke="#434445" stroke-width="2" stroke-linecap="round" stroke-linejoin="round" stroke-miterlimit="10" x1="474.5" y1="358.1" x2="481.2" y2="364"/>
		
			<line fill="none" stroke="#434445" stroke-width="2" stroke-linecap="round" stroke-linejoin="round" stroke-miterlimit="10" x1="457.4" y1="381" x2="463.7" y2="384.7"/>
	</g>
	<path fill="none" stroke="#434445" stroke-width="2" stroke-linecap="round" stroke-linejoin="round" stroke-miterlimit="10" d="
		M681,307.3c0,0,2.7-16,2.7-22s0-17.3-2.7-22l2.7-9.3"/>
	<path fill="none" stroke="#686969" stroke-width="7" stroke-linecap="round" stroke-linejoin="round" stroke-miterlimit="10" d="
		M249,257.3c-17.3-19.3-100-70-114-78.7C122.3,163.3,46.8,95,46.8,95"/>
	
		<polyline fill="none" stroke="#686969" stroke-width="3" stroke-linecap="round" stroke-linejoin="round" stroke-miterlimit="10" points="
		377.7,260.7 403,297.3 412.7,307 420.3,324.7 425.7,352.7 442,397.3 447.7,424.9 456.3,442.7 469.3,455.7 502.3,469.3 516.3,474 
		639.7,428 	"/>
	
		<polyline fill="none" stroke="#686969" stroke-width="3" stroke-linecap="round" stroke-linejoin="round" stroke-miterlimit="10" points="
		417,514 304.3,498.7 301.7,506.3 413.7,524 	"/>
	
		<polyline fill="none" stroke="#686969" stroke-width="3" stroke-linecap="round" stroke-linejoin="round" stroke-miterlimit="10" points="
		279,546.7 285.7,524 291.7,524 301.7,508.7 	"/>
	
		<line fill="none" stroke="#686969" stroke-width="3" stroke-linecap="round" stroke-linejoin="round" stroke-miterlimit="10" x1="291.7" y1="524" x2="378.9" y2="575.2"/>
	<path fill="none" stroke="#686969" stroke-width="3" stroke-linecap="round" stroke-linejoin="round" stroke-miterlimit="10" d="
		M421,539.3"/>
	
		<line fill="none" stroke="#686969" stroke-width="3" stroke-linecap="round" stroke-linejoin="round" stroke-miterlimit="10" x1="421" y1="539.3" x2="371.7" y2="581.3"/>
	<path fill="none" stroke="#686969" stroke-width="3" stroke-linecap="round" stroke-linejoin="round" stroke-miterlimit="10" d="
		M423.7,505.3l-51.3-104.7c0,0-18-48.7-16-80.7s7.3-62.8,7.3-62.8"/>
	
		<polyline fill="none" stroke="#686969" stroke-width="3" stroke-linecap="round" stroke-linejoin="round" stroke-miterlimit="10" points="
		378.6,413.5 393,420 402.3,436.7 434.3,498.7 	"/>
	
		<line fill="none" stroke="#686969" stroke-width="3" stroke-linecap="round" stroke-linejoin="round" stroke-miterlimit="10" x1="461.7" y1="508.7" x2="483" y2="479.3"/>
	
		<line fill="none" stroke="#686969" stroke-width="3" stroke-linecap="round" stroke-linejoin="round" stroke-miterlimit="10" x1="452.3" y1="498.7" x2="477.3" y2="473.7"/>
	
		<line fill="none" stroke="#686969" stroke-width="3" stroke-linecap="round" stroke-linejoin="round" stroke-miterlimit="10" x1="170.7" y1="401.2" x2="181.7" y2="406"/>
	
		<polyline fill="none" stroke="#686969" stroke-width="3" stroke-linecap="round" stroke-linejoin="round" stroke-miterlimit="10" points="
		73,436.7 154.3,461.3 206.7,268.9 215.2,230.5 	"/>
	
		<line fill="none" stroke="#686969" stroke-width="3" stroke-linecap="round" stroke-linejoin="round" stroke-miterlimit="10" x1="106.3" y1="479.3" x2="151.7" y2="461.3"/>
	
		<polyline fill="none" stroke="#686969" stroke-width="3" stroke-linecap="round" stroke-linejoin="round" stroke-miterlimit="10" points="
		304.3,498.7 304.3,468 312.3,442 318.3,413.5 326.3,401.2 333.7,384.7 342.3,367.3 347.7,356 354.1,349.6 358.6,349.6 	"/>
	<path fill="none" stroke="#686969" stroke-width="3" stroke-linecap="round" stroke-linejoin="round" stroke-miterlimit="10" d="
		M329.3,394.5c0,0-9.6-8.6-11.6-13.2s-8-22.6-8.7-25.3s3.3-19.3,5.3-26s4.8-30,4.8-30l10.2-31.1l4.4-19.8"/>
	<g>
		
			<line fill="none" stroke="#434445" stroke-width="3" stroke-linecap="round" stroke-linejoin="round" stroke-miterlimit="10" x1="384.5" y1="73.5" x2="229" y2="546.7"/>
		
			<line fill="none" stroke="#434445" stroke-width="3" stroke-linecap="round" stroke-linejoin="round" stroke-miterlimit="10" x1="378.6" y1="73.5" x2="224.5" y2="546.7"/>
	</g>
	
		<polyline fill="none" stroke="#686969" stroke-width="3" stroke-linecap="round" stroke-linejoin="round" stroke-miterlimit="10" points="
		367.7,450 396.3,453.3 406.5,450 437.7,440.7 489.7,377.3 504,363 516.3,345.9 543.7,303.3 	"/>
	
		<polyline fill="none" stroke="#686969" stroke-width="3" stroke-linecap="round" stroke-linejoin="round" stroke-miterlimit="10" points="
		480.3,349.6 497,359.9 508.7,367.7 539.6,384.7 553.7,394.5 574.3,411.4 582.3,424.9 589,437.3 595.7,453.3 605,474 608.3,490.7 
		619.7,515.3 623,527.7 	"/>
	
		<polyline fill="none" stroke="#686969" stroke-width="3" stroke-linecap="round" stroke-linejoin="round" stroke-miterlimit="10" points="
		419.1,321.8 461.7,340.7 480.3,349.6 	"/>
	<path fill="none" stroke="#686969" stroke-width="10" stroke-linecap="round" stroke-linejoin="round" stroke-miterlimit="10" d="
		M468.3,527.7c0,0,21.3,3,36,3.7s50.7-5.3,59.3-9.3s62.7-23.3,62.7-23.3l55.3-24.7l43.3-20.7l32-18.7l33.3-25.3c0,0,22-24.7,24-32.7
		s3.3-24.7,3.3-24.7l-8.7-30.2L792.3,272l-34-102"/>
	
		<polyline fill="none" stroke="#434445" stroke-width="2" stroke-linecap="round" stroke-linejoin="round" stroke-miterlimit="10" points="
		377.7,260.7 384.5,242.5 353.1,232.9 	"/>
	<path fill="none" stroke="#686969" stroke-width="6" stroke-linecap="round" stroke-linejoin="round" stroke-miterlimit="10" d="
		M805.7,448c0,0-4.7-24.7-10.4-44.4s2.4-29.6,7.7-43.7s6-38.1,6-38.1s19.7,21.5,24,34.2s4,34.7-2.7,42s-18.7,12.8-22,13.4
		s-18-2.1-18-2.1"/>
	<path fill="none" stroke="#686969" stroke-width="6" stroke-linecap="round" stroke-linejoin="round" stroke-miterlimit="10" d="
		M799.1,369.1c9.2-5.1,31.7-5.1,36.5-5.1s17.4,0,17.4,0"/>
	
		<line fill="none" stroke="#686969" stroke-width="6" stroke-linecap="round" stroke-linejoin="round" stroke-miterlimit="10" x1="830.3" y1="398" x2="852.3" y2="381.3"/>
	<path fill="none" stroke="#686969" stroke-width="3" stroke-linecap="round" stroke-linejoin="round" stroke-miterlimit="10" d="
		M568.3,202.7l27.3,3.3l47.3,8.7l20.7,4.7l14.7,2.9c0,0,0.7,8.5,6.7,13.1s29.3,10.5,29.3,10.5l15.3,3.3c0,0,23.3,8.8,30,6.9
		s16-3.7,16-3.7s12.7-3.9,18-6.4"/>
	<path fill="none" stroke="#686969" stroke-width="3" stroke-linecap="round" stroke-linejoin="round" stroke-miterlimit="10" d="
		M769.5,253.5c-5.2,6.5-11.9,13.6-8.6,20.1s0.9,19.1-4.2,25.1s-20.4,16.4-20.4,16.4s-20.7,5.2-28.7,5.4s-26.7,1.3-26.7,1.3v14.9"/>
	
		<line fill="none" stroke="#686969" stroke-width="3" stroke-linecap="round" stroke-linejoin="round" stroke-miterlimit="10" x1="690.2" y1="238.1" x2="687.7" y2="253.5"/>
	
		<line fill="none" stroke="#686969" stroke-width="3" stroke-linecap="round" stroke-linejoin="round" stroke-miterlimit="10" x1="681" y1="307.3" x2="681" y2="321.8"/>
	<path fill="none" stroke="#686969" stroke-width="3" stroke-linecap="round" stroke-linejoin="round" stroke-miterlimit="10" d="
		M678.3,312.8"/>
	
		<circle fill="none" stroke="#686969" stroke-width="3" stroke-linecap="round" stroke-linejoin="round" stroke-miterlimit="10" cx="562.7" cy="200" r="4.7"/>
	
		<circle fill="none" stroke="#686969" stroke-width="3" stroke-linecap="round" stroke-linejoin="round" stroke-miterlimit="10" cx="442" cy="524" r="24"/>
	
		<line fill="none" stroke="#686969" stroke-width="3" stroke-linecap="round" stroke-linejoin="round" stroke-miterlimit="10" x1="511" y1="489.5" x2="511" y2="531.3"/>
	
		<polyline fill="none" stroke="#686969" stroke-width="3" stroke-linecap="round" stroke-linejoin="round" stroke-miterlimit="10" points="
		481.2,476.3 499.2,450.2 515.5,433.8 529.7,419.7 546.7,389.7 558.7,366.5 574.3,336.7 583,308.6 588,291 591.5,271.7 594,256.2 
		596,249 	"/>
	
		<line fill="none" stroke="#686969" stroke-width="3" stroke-linecap="round" stroke-linejoin="round" stroke-miterlimit="10" x1="793.7" y1="398" x2="754.2" y2="366.5"/>
	
		<polyline fill="none" stroke="#686969" stroke-width="3" stroke-linecap="round" stroke-linejoin="round" stroke-miterlimit="10" points="
		762,375.2 727.5,404.5 715.5,416.5 698.5,424.1 688.9,429.3 	"/>
	
		<line fill="none" stroke="#686969" stroke-width="3" stroke-linecap="round" stroke-linejoin="round" stroke-miterlimit="10" x1="669" y1="429.3" x2="687.7" y2="429.3"/>
	
		<polyline fill="none" stroke="#686969" stroke-width="3" stroke-linecap="round" stroke-linejoin="round" stroke-miterlimit="10" points="
		663.9,434.4 669,439.5 674,453.3 678.3,474 695.1,505.3 	"/>
	
		<polyline fill="none" stroke="#686969" stroke-width="3" stroke-linecap="round" stroke-linejoin="round" stroke-miterlimit="10" points="
		669,336.7 658,364 651.5,384.9 645.5,405.5 639.7,426.5 646.5,442.6 654.3,464 660.2,483.5 671.1,511.3 	"/>
	
		<polyline fill="none" stroke="#686969" stroke-width="3" stroke-linecap="round" stroke-linejoin="round" stroke-miterlimit="10" points="
		483,347.9 442,397.3 403.7,439.3 393.2,443.2 367.7,450 154.3,461.3 151.3,479.3 	"/>
	
		<polyline fill="none" stroke="#686969" stroke-width="3" stroke-linecap="round" stroke-linejoin="round" stroke-miterlimit="10" points="
		582.3,424.9 596,414.8 604,401.8 607,394.5 617,375.2 626,359.9 630,345.9 632.3,336.7 632.3,326 	"/>
	
		<polyline fill="none" stroke="#686969" stroke-width="3" stroke-linecap="round" stroke-linejoin="round" stroke-miterlimit="10" points="
		747.5,364 738.7,372.7 722.5,384.9 710.4,394.5 703.2,401.8 688.9,410.1 678.3,414.8 710.4,460.3 715.5,470.3 760.3,479.3 	"/>
	
		<line fill="none" stroke="#686969" stroke-width="3" stroke-linecap="round" stroke-linejoin="round" stroke-miterlimit="10" x1="760.3" y1="268.1" x2="747.5" y2="256.2"/>
	<path fill="none" stroke="#686969" stroke-width="3" stroke-linecap="round" stroke-linejoin="round" stroke-miterlimit="10" d="
		M492.4,286c1.2,10.4,3.6,27.4,6.6,33.5c4.5,9,15.5,28,24,32.5s42,26.3,42,26.3l29.5,11.3l12.5,4.9l16,5.5l22.5,5.5l28.5,5l4.3,4.3
		l-6.5,4"/>
	<g>
		
			<polyline fill="none" stroke="#434445" stroke-width="2" stroke-linecap="round" stroke-linejoin="round" stroke-miterlimit="10" points="
			468.3,204.7 461.7,229.4 452.9,252.2 442,274.4 		"/>
		
			<line fill="none" stroke="#434445" stroke-width="2" stroke-linecap="round" stroke-linejoin="round" stroke-miterlimit="10" x1="459.2" y1="232" x2="455.7" y2="230.5"/>
	</g>
	<g>
		
			<line fill="none" stroke="#434445" stroke-width="2" stroke-linecap="round" stroke-linejoin="round" stroke-miterlimit="10" x1="428.5" y1="280" x2="434.3" y2="268.9"/>
		
			<line fill="none" stroke="#434445" stroke-width="2" stroke-linecap="round" stroke-linejoin="round" stroke-miterlimit="10" x1="406.5" y1="274.4" x2="408.5" y2="268.9"/>
		
			<line fill="none" stroke="#434445" stroke-width="2" stroke-linecap="round" stroke-linejoin="round" stroke-miterlimit="10" x1="421" y1="268.9" x2="421" y2="264.5"/>
		
			<line fill="none" stroke="#434445" stroke-width="2" stroke-linecap="round" stroke-linejoin="round" stroke-miterlimit="10" x1="415" y1="268.9" x2="415" y2="264.5"/>
		
			<line fill="none" stroke="#434445" stroke-width="2" stroke-linecap="round" stroke-linejoin="round" stroke-miterlimit="10" x1="399" y1="264.5" x2="401" y2="256.2"/>
		
			<polyline fill="none" stroke="#434445" stroke-width="2" stroke-linecap="round" stroke-linejoin="round" stroke-miterlimit="10" points="
			384.5,238.1 389.9,217.5 389.9,208.5 		"/>
		
			<line fill="none" stroke="#434445" stroke-width="2" stroke-linecap="round" stroke-linejoin="round" stroke-miterlimit="10" x1="373" y1="238.1" x2="375.7" y2="222.2"/>
		
			<line fill="none" stroke="#434445" stroke-width="2" stroke-linecap="round" stroke-linejoin="round" stroke-miterlimit="10" x1="455.2" y1="202.7" x2="452.9" y2="210.5"/>
		
			<line fill="none" stroke="#434445" stroke-width="2" stroke-linecap="round" stroke-linejoin="round" stroke-miterlimit="10" x1="421" y1="192.2" x2="421" y2="202.7"/>
	</g>
	<g>
		
			<polyline fill="none" stroke="#434445" stroke-width="2" stroke-linecap="round" stroke-linejoin="round" stroke-miterlimit="10" points="
			539.6,208.5 539.6,220 543.7,227.5 548,229.4 570.5,223.3 579,226 584.9,223.3 596,223.3 596,240 		"/>
		
			<polyline fill="none" stroke="#434445" stroke-width="2" stroke-linecap="round" stroke-linejoin="round" stroke-miterlimit="10" points="
			648.5,244.5 648.5,239.6 632.3,232.9 619,226 607.3,223.3 596,223.3 598.5,215.5 598.5,210.5 592.5,210.5 584.9,210.5 
			584.9,217.5 584.9,223.3 		"/>
		
			<line fill="none" stroke="#434445" stroke-width="2" stroke-linecap="round" stroke-linejoin="round" stroke-miterlimit="10" x1="518" y1="245.8" x2="527.5" y2="210.5"/>
		<path fill="none" stroke="#434445" stroke-width="2" stroke-linecap="round" stroke-linejoin="round" stroke-miterlimit="10" d="
			M513,249l-21.5,28.5c0,0,0.3,3.5,0.9,8.5"/>
		
			<line fill="none" stroke="#434445" stroke-width="2" stroke-linecap="round" stroke-linejoin="round" stroke-miterlimit="10" x1="500" y1="244.5" x2="491.5" y2="274.4"/>
		
			<line fill="none" stroke="#434445" stroke-width="2" stroke-linecap="round" stroke-linejoin="round" stroke-miterlimit="10" x1="500" y1="239.6" x2="509" y2="210.5"/>
		
			<polyline fill="none" stroke="#434445" stroke-width="2" stroke-linecap="round" stroke-linejoin="round" stroke-miterlimit="10" points="
			491.5,207.8 491.5,217.5 487.7,228.1 486.2,232.9 491.5,238.1 504,244.5 511,247.5 518,245.8 525.5,242 539.6,238.1 554.5,235.5 
			572.5,232.9 584.9,232.9 596,232.9 610,232.9 619.5,238.1 692.3,256.2 		"/>
		
			<polyline fill="none" stroke="#434445" stroke-width="2" stroke-linecap="round" stroke-linejoin="round" stroke-miterlimit="10" points="
			486.2,232.9 477.3,245.8 474.5,259.5 468.3,268.9 463.7,280 		"/>
		
			<line fill="none" stroke="#434445" stroke-width="2" stroke-linecap="round" stroke-linejoin="round" stroke-miterlimit="10" x1="466" y1="218.5" x2="486.2" y2="230.2"/>
		
			<line fill="none" stroke="#434445" stroke-width="2" stroke-linecap="round" stroke-linejoin="round" stroke-miterlimit="10" x1="518" y1="245.8" x2="527.5" y2="252.2"/>
		
			<line fill="none" stroke="#434445" stroke-width="2" stroke-linecap="round" stroke-linejoin="round" stroke-miterlimit="10" x1="549.4" y1="236.4" x2="553" y2="244.5"/>
		
			<line fill="none" stroke="#434445" stroke-width="2" stroke-linecap="round" stroke-linejoin="round" stroke-miterlimit="10" x1="575" y1="232.9" x2="578" y2="240.5"/>
	</g>
	
		<polyline fill="none" stroke="#686969" stroke-width="3" stroke-linecap="round" stroke-linejoin="round" stroke-miterlimit="10" points="
		452.9,545.4 459.2,560.3 457.4,595 	"/>
	
		<line fill="none" stroke="#686969" stroke-width="3" stroke-linecap="round" stroke-linejoin="round" stroke-miterlimit="10" x1="459.2" y1="560.3" x2="476.1" y2="570.2"/>
	
		<polyline fill="none" stroke="#686969" stroke-width="3" stroke-linecap="round" stroke-linejoin="round" stroke-miterlimit="10" points="
		271.5,249 251,222.2 229,202.7 194.8,172.5 182.6,160.4 167.4,145.1 154.3,132.1 128.9,106.6 99,81.5 49.7,44.7 	"/>
	
		<line fill="none" stroke="#686969" stroke-width="3" stroke-linecap="round" stroke-linejoin="round" stroke-miterlimit="10" x1="54.3" y1="100.7" x2="80.3" y2="67.8"/>
	
		<polyline fill="none" stroke="#686969" stroke-width="3" stroke-linecap="round" stroke-linejoin="round" stroke-miterlimit="10" points="
		71.4,79.1 117.3,116 129.8,126.5 139.8,136.5 149.2,144.2 151.3,149.2 149.2,152.7 144.7,155.8 143,160.2 143,163.5 132.4,175.7 	
		"/>
	<path fill="none" stroke="#686969" stroke-width="3" stroke-linecap="round" stroke-linejoin="round" stroke-miterlimit="10" d="
		M179.5,140.5l-3.6,3.6c0,0-5.3,0.8-7.7,1.9s-8.4,4.4-8.4,4.4l-6.5,5.4l-10.3,7.7l6,1.3l3.7-3.7c0,0,4.5-4.7,6.8-4.7s3.7,0,5.5,1.5
		s9.3,8.9,9.3,8.9l6.5,6.5l18.2,16.4c0,0,4.8,4,5.2,7.2s-5.6,8.8-5.6,8.8l-6.3,9.2"/>
	<path fill="none" stroke="#686969" stroke-width="3" stroke-linecap="round" stroke-linejoin="round" stroke-miterlimit="10" d="
		M195.6,173.2c0,0,8.7,18.6,8.7,23.9"/>
	
		<line fill="none" stroke="#686969" stroke-width="3" stroke-linecap="round" stroke-linejoin="round" stroke-miterlimit="10" x1="177.9" y1="205.7" x2="173.6" y2="219.5"/>
	
		<polyline fill="none" stroke="#686969" stroke-width="3" stroke-linecap="round" stroke-linejoin="round" stroke-miterlimit="10" points="
		123.8,179.8 133.8,181.7 136.8,187.8 	"/>
	
		<line fill="none" stroke="#686969" stroke-width="3" stroke-linecap="round" stroke-linejoin="round" stroke-miterlimit="10" x1="85.4" y1="130.3" x2="104.5" y2="105.6"/>
	
		<line fill="none" stroke="#686969" stroke-width="3" stroke-linecap="round" stroke-linejoin="round" stroke-miterlimit="10" x1="122" y1="119.9" x2="100.8" y2="144.7"/>
	
		<polyline fill="none" stroke="#686969" stroke-width="3" stroke-linecap="round" stroke-linejoin="round" stroke-miterlimit="10" points="
		104,147.8 99,151.8 91.3,152.7 82.2,152.7 	"/>
	
		<line fill="none" stroke="#686969" stroke-width="3" stroke-linecap="round" stroke-linejoin="round" stroke-miterlimit="10" x1="108" y1="154.8" x2="104.5" y2="158"/>
	<g>
		<path fill="none" stroke="#686969" stroke-width="7" stroke-linecap="round" stroke-linejoin="round" stroke-miterlimit="10" d="
			M106.3,298c0,0,182-56,210-52s47.3,11.2,47.3,11.2l14,3.4"/>
		
			<polyline fill="none" stroke="#686969" stroke-width="7" stroke-linecap="round" stroke-linejoin="round" stroke-miterlimit="10" points="
			692.3,336.7 709,340.5 723,345.9 735,350.7 750,364 762.5,371.5 774.5,378.3 785.5,384.9 793.7,381.3 		"/>
		
			<polyline fill="none" stroke="#686969" stroke-width="7" stroke-linecap="round" stroke-linejoin="round" stroke-miterlimit="10" points="
			692.3,336.7 671.7,336.7 657,336.7 639.7,329.3 623,321.8 596.3,312.8 577,306.7 558.3,303.3 521,298.7 500.3,296 483,286.4 
			464.8,282 452.3,277.3 434.3,274.7 413,268.9 393,264 377.7,260.7 		"/>
	</g>
	<path fill="none" stroke="#686969" stroke-width="3" stroke-linecap="round" stroke-linejoin="round" stroke-miterlimit="10" d="
		M437.7,440.7l51.3,42c0,0,8,8.3,22,6.8s52-15.5,52-15.5l62.7-23.3l36-14l7.3-7.3l10.7-40l12.7-52.7"/>
	<path fill="none" stroke="#686969" stroke-width="3" stroke-linecap="round" stroke-linejoin="round" stroke-miterlimit="10" d="
		M347.1,252.2l15.9-51.5c0,0-0.7,0,4.7,0s16.8,4,16.8,4c4.5,0.7,8.5-7.3,8.5-7.3s3-8,14.2-4s54.5,9.3,54.5,9.3l38.7,6.7h27.3l28-4.7
		l3-3"/>
	
		<polyline fill="none" stroke="#686969" stroke-width="3" stroke-linecap="round" stroke-linejoin="round" stroke-miterlimit="10" points="
		596,240 596,249 601.5,249 611,256.2 619.3,264.5 632.3,277.5 643,288.2 654.3,299.5 669,308.6 681,312.8 	"/>
	
		<polyline fill="none" stroke="#686969" stroke-width="3" stroke-linecap="round" stroke-linejoin="round" stroke-miterlimit="10" points="
		567.3,403.6 571.5,394.5 578,384.7 	"/>
	
		<line fill="none" stroke="#686969" stroke-width="3" stroke-linecap="round" stroke-linejoin="round" stroke-miterlimit="10" x1="594.5" y1="389.7" x2="572.7" y2="394.1"/>
</g>
<g id="Straatnamen">
	<line fill="none" x1="339" y1="239.5" x2="577.5" y2="299"/>
	
		<rect x="444.9" y="182.8" transform="matrix(0.9762 0.217 -0.217 0.9762 52.1147 -98.8563)" fill="none" width="62.5" height="10.1"/>
	
		<text transform="matrix(0.9762 0.217 -0.217 0.9762 445.4346 181.8521)" fill="#FFFFFF" font-family="'Arial'" font-size="8">WAALKADE</text>
	
		<rect x="540.5" y="211.4" transform="matrix(0.9934 -0.1146 0.1146 0.9934 -21.03 66.94)" fill="none" width="62.5" height="10.1"/>
	
		<text transform="matrix(0.9934 -0.1146 0.1146 0.9934 540.8418 220.8428)" fill="#FFFFFF" font-family="'Arial'" font-size="8">LAGE MARKT</text>
	
		<rect x="598.3" y="313.4" transform="matrix(0.9359 0.3521 -0.3521 0.9359 152.6798 -203.0183)" fill="none" width="72.3" height="9.5"/>
	
		<text transform="matrix(0.9359 0.3521 -0.3521 0.9359 600.1836 306.5347)" fill="#FFFFFF" font-family="'Arial'" font-size="8">BURCHTSTRAAT</text>
	<rect x="511.5" y="277" transform="matrix(0.994 -0.1093 0.1093 0.994 -27.4606 60.5435)" fill="none" width="53.8" height="7.4"/>
	
		<text transform="matrix(0.994 -0.1093 0.1093 0.994 511.8428 285.0474)" fill="#FFFFFF" font-family="'Arial'" font-size="7">GROTE MARKT</text>
	
		<rect x="557.2" y="261.7" transform="matrix(0.109 -0.994 0.994 0.109 259.2474 822.5973)" fill="none" width="62.5" height="10.1"/>
	
		<text transform="matrix(0.1089 -0.9941 0.9941 0.1089 585.9209 297.8428)" fill="#FFFFFF" font-family="'Arial'" font-size="8">GROTE STRAAT</text>
	
		<rect x="384.7" y="259.3" transform="matrix(0.9675 0.2529 -0.2529 0.9675 80.5955 -100.0691)" fill="none" width="89.6" height="8.2"/>
	
		<text transform="matrix(0.9675 0.2529 -0.2529 0.9675 385.7305 253.8276)" fill="#FFFFFF" font-family="'Arial'" font-size="8">LANGE HEZELSTRAAT</text>
	
		<rect x="423.2" y="323.4" transform="matrix(0.908 0.419 -0.419 0.908 179.1086 -159.5123)" fill="none" width="58.9" height="9.2"/>
	
		<text transform="matrix(0.908 0.419 -0.419 0.908 425.4658 316.8521)" fill="#FFFFFF" font-family="'Arial'" font-size="8">DODDENDAAL</text>
	
		<rect x="326.7" y="439.6" transform="matrix(0.9973 -7.345046e-02 7.345046e-02 0.9973 -31.6646 27.3612)" fill="none" width="58.9" height="9.2"/>
	
		<text transform="matrix(0.9973 -7.342266e-02 7.342239e-02 0.9973 326.8906 447.6641)" fill="#FFFFFF" font-family="'Arial'" font-size="8">TUNNELWEG</text>
	
		<rect x="374" y="562.1" transform="matrix(0.7103 -0.7039 0.7039 0.7103 -282.0109 448.2203)" fill="none" width="58.9" height="9.2"/>
	
		<text transform="matrix(0.7103 -0.7039 0.7039 0.7103 383.4741 588.3574)" fill="#FFFFFF" font-family="'Arial'" font-size="8">GRAAFSEWEG</text>
	<polygon fill="none" points="455.8,542.7 426.1,542.7 426.1,512.6 455.8,512.6 	"/>
	
		<text transform="matrix(1 1.600000e-04 -1.600000e-04 1 428.8486 518.5137)" fill="#FFFFFF" font-family="'Arial'" font-size="8">KEIZER</text>
	
		<text transform="matrix(1 1.600000e-04 -1.600000e-04 1 429.3276 526.5137)" fill="#FFFFFF" font-family="'Arial'" font-size="8">KAREL</text>
	
		<text transform="matrix(1 1.600000e-04 -1.600000e-04 1 430.7681 534.5137)" fill="#FFFFFF" font-family="'Arial'" font-size="8">PLEIN</text>
	
		<rect x="447.4" y="566.5" transform="matrix(0.4085 0.9128 -0.9128 0.4085 799.6686 -92.7993)" fill="none" width="48" height="8.2"/>
	
		<text transform="matrix(0.4084 0.9128 -0.9128 0.4084 461.3257 548.7373)" fill="#FFFFFF" font-family="'Arial'" font-size="6">ST. ANNASTRAAT</text>
	
		<rect x="282.6" y="412" transform="matrix(0.3252 -0.9456 0.9456 0.3252 -183.3636 576.1774)" fill="none" width="58.9" height="9.2"/>
	
		<text transform="matrix(0.3253 -0.9456 0.9456 0.3253 303.7041 444.8594)" fill="#FFFFFF" font-family="'Arial'" font-size="8">STATIONWEG</text>
	
		<rect x="263.7" y="302.7" transform="matrix(0.3161 -0.9487 0.9487 0.3161 -91.0685 488.3297)" fill="none" width="58.9" height="9.2"/>
	
		<text transform="matrix(0.3161 -0.9487 0.9487 0.3161 285.0898 335.6943)" fill="#FFFFFF" font-family="'Arial'" font-size="8">SPOORWEG</text>
	
		<rect x="317.5" y="496.5" transform="matrix(0.9911 0.1333 -0.1333 0.9911 69.9864 -44.3975)" fill="none" width="98.1" height="8"/>
	
		<text transform="matrix(0.9911 0.1333 -0.1333 0.9911 317.7861 495.0645)" fill="#FFFFFF" font-family="'Arial'" font-size="7">V. SCHAECK MATHONSINGEL</text>
	
		<rect x="295.9" y="543.9" transform="matrix(0.8524 0.5229 -0.5229 0.8524 336.9666 -97.6932)" fill="none" width="91.3" height="8.3"/>
	
		<text transform="matrix(0.8524 0.5229 -0.5229 0.8524 302.501 524.4141)" fill="#FFFFFF" font-family="'Arial'" font-size="6">V. OLDENBARNEVELDSTRAAT</text>
	<polygon fill="none" points="434.8,390.9 391.7,391 391.6,362.4 434.7,362.3 	"/>
	
		<text transform="matrix(1 -2.679881e-03 2.679877e-03 1 391.6216 367.563)" fill="#FFFFFF" font-family="'Arial'" font-size="7">KRONEN-</text>
	
		<text transform="matrix(1 -2.679881e-03 2.679877e-03 1 391.6431 375.563)" fill="#FFFFFF" font-family="'Arial'" font-size="7">BURGER-</text>
	
		<text transform="matrix(1 -2.679881e-03 2.679877e-03 1 391.665 383.563)" fill="#FFFFFF" font-family="'Arial'" font-size="7">PARK</text>
	
		<rect x="447.9" y="397.2" transform="matrix(0.6119 -0.791 0.791 0.6119 -130.6069 536.3333)" fill="none" width="66.7" height="8.1"/>
	
		<text transform="matrix(0.6119 -0.7909 0.7909 0.6119 462.2983 428.7441)" fill="#FFFFFF" font-family="'Arial'" font-size="8">BLOEMERSTRAAT</text>
	
		<rect x="477.7" y="420.9" transform="matrix(0.6119 -0.791 0.791 0.6119 -137.7809 569.1059)" fill="none" width="66.7" height="8.1"/>
	
		<text transform="matrix(0.6119 -0.7909 0.7909 0.6119 492.105 452.4404)" fill="#FFFFFF" font-family="'Arial'" font-size="8">MOLENSTRAAT</text>
	
		<rect x="542.3" y="502.3" transform="matrix(0.943 -0.3329 0.3329 0.943 -135.7181 220.5038)" fill="none" width="66.7" height="8.1"/>
	
		<text transform="matrix(0.943 -0.3329 0.3329 0.943 544.8428 519.1807)" fill="#FFFFFF" font-family="'Arial'" font-size="8">ORANJE SINGEL</text>
	
		<rect x="516.9" y="454" transform="matrix(0.9365 -0.3507 0.3507 0.9365 -125.7632 221.7791)" fill="none" width="65.1" height="8.2"/>
	
		<text transform="matrix(0.9365 -0.3507 0.3507 0.9365 519.043 469.79)" fill="#FFFFFF" font-family="'Arial'" font-size="6">TWEEDE WALSTRAAT</text>
	
		<rect x="548.5" y="433.3" transform="matrix(0.5219 0.853 -0.853 0.5219 650.9156 -286.524)" fill="none" width="65.1" height="8.2"/>
	
		<text transform="matrix(0.5219 0.853 -0.853 0.5219 563.8711 409.8535)" fill="#FFFFFF" font-family="'Arial'" font-size="6">ZIEKERSTRAAT</text>
	
		<rect x="606" y="408.5" transform="matrix(0.9623 0.272 -0.272 0.9623 136.3247 -158.132)" fill="none" width="65.1" height="8.2"/>
	
		<text transform="matrix(0.9623 0.2721 -0.2721 0.9623 607.1113 404.0674)" fill="#FFFFFF" font-family="'Arial'" font-size="6">MARIENBURG</text>
	<rect x="718.9" y="291" transform="matrix(0.8111 -0.5849 0.5849 0.8111 -30.6695 495.22)" fill="none" width="65" height="8.2"/>
	
		<text transform="matrix(0.8111 -0.5848 0.5849 0.8111 725.6543 314.9707)" fill="#FFFFFF" font-family="'Arial'" font-size="7">VOERWEG</text>
	
		<rect x="693.6" y="336.2" transform="matrix(0.9363 0.3513 -0.3513 0.9363 167.4369 -232.843)" fill="none" width="63.7" height="17.7"/>
	
		<text transform="matrix(0.9362 0.3514 -0.3514 0.9362 696.9531 330.3911)" fill="#FFFFFF" font-family="'Arial'" font-size="7">KELFKENSBOS</text>
	
		<rect x="535" y="327.6" transform="matrix(0.3939 -0.9192 0.9192 0.3939 39.6091 723.4244)" fill="none" width="66.7" height="8.1"/>
	
		<text transform="matrix(0.3939 -0.9192 0.9191 0.3939 556.9023 363.0542)" fill="#FFFFFF" font-family="'Arial'" font-size="8">BROERSTRAAT</text>
	
		<rect x="583.4" y="354.1" transform="matrix(0.3697 -0.9292 0.9292 0.3697 55.9675 798.7642)" fill="none" width="66.7" height="8.1"/>
	
		<text transform="matrix(0.3697 -0.9291 0.9291 0.3697 606.083 389.7769)" fill="#FFFFFF" font-family="'Arial'" font-size="8">MARIKENSTRAAT</text>
	
		<rect x="509.8" y="365.3" transform="matrix(0.8466 0.5323 -0.5323 0.8466 278.0958 -226.5783)" fill="none" width="44.5" height="7.6"/>
	
		<text transform="matrix(0.8465 0.5323 -0.5323 0.8466 512.123 359.0508)" fill="#FFFFFF" font-family="'Arial'" font-size="8">PLEIN 1944</text>
	
		<rect x="324.9" y="321.9" transform="matrix(2.953417e-02 0.9996 -0.9996 2.953417e-02 685.5514 -54.4991)" fill="none" width="91.9" height="7.7"/>
	
		<text transform="matrix(2.953168e-02 0.9996 -0.9996 2.954038e-02 367.4673 279.9556)" fill="#FFFFFF" font-family="'Arial'" font-size="8">KRONENBURGERSINGEL</text>
	
		<rect x="648.5" y="366.8" transform="matrix(0.2786 -0.9604 0.9604 0.2786 135.0626 921.6039)" fill="none" width="65.1" height="8.2"/>
	
		<text transform="matrix(0.2786 -0.9604 0.9604 0.2786 672.2354 402.2227)" fill="#FFFFFF" font-family="'Arial'" font-size="6">HERTOGSTRAAT</text>
	
		<rect x="526.3" y="479.7" transform="matrix(0.9571 -0.2897 0.2897 0.9571 -116.2054 182.6507)" fill="none" width="65.1" height="8.2"/>
	
		<text transform="matrix(0.9571 -0.2897 0.2897 0.9571 527.7905 493.5557)" fill="#FFFFFF" font-family="'Arial'" font-size="6">V. WELDERENSTRAAT</text>
	
		<rect x="701" y="399.8" transform="matrix(0.7876 -0.6162 0.6162 0.7876 -91.9286 540.5689)" fill="none" width="74.3" height="7.6"/>
	
		<text transform="matrix(0.7876 -0.6162 0.6162 0.7876 709.2461 426.9609)" fill="#FFFFFF" font-family="'Arial'" font-size="6">V. BROEKHUYSENSTRAAT</text>
	<g>
		
			<rect x="782" y="270.6" transform="matrix(0.3142 0.9494 -0.9494 0.3142 823.4636 -580.9618)" fill="none" width="63.7" height="17.7"/>
		
			<text transform="matrix(0.3141 0.9494 -0.9494 0.3141 807.373 248.0981)" fill="#FFFFFF" font-family="'Arial'" font-size="7">WAALBRUG</text>
		
			<text transform="matrix(0.3141 0.9494 -0.9494 0.3141 799.3994 250.7388)" fill="#626366" font-family="'Arial'" font-size="7">ARNHEM</text>
		<g>
			
				<line fill="none" stroke="#FFFFFF" stroke-width="2" stroke-linecap="round" stroke-linejoin="round" x1="788.5" y1="213.5" x2="798.1" y2="241.8"/>
			<polyline fill="#FFFFFF" stroke="#FFFFFF" points="787.8,212.5 786.7,220.9 794.6,217.8 787.9,212.3 			"/>
		</g>
	</g>
	
		<rect x="612.4" y="279.3" transform="matrix(0.7304 0.683 -0.683 0.7304 368.8818 -366.4026)" fill="none" width="72.3" height="9.5"/>
	
		<text transform="matrix(0.7304 0.683 -0.683 0.7304 621.3652 260.1929)" fill="#FFFFFF" font-family="'Arial'" font-size="8">RIDDERSTRAAT</text>
	
		<rect x="686.8" y="378.7" transform="matrix(0.7622 -0.6473 0.6473 0.7622 -76.7808 556.6373)" fill="none" width="65.1" height="8.2"/>
	
		<text transform="matrix(0.7623 -0.6473 0.6472 0.7623 694.7188 404.1274)" fill="#FFFFFF" font-family="'Arial'" font-size="6">DERDE WALSTRAAT</text>
	<rect x="118" y="269.3" transform="matrix(0.962 -0.273 0.273 0.962 -68.4629 54.8331)" fill="none" width="89.6" height="8.2"/>
	
		<text transform="matrix(0.962 -0.273 0.273 0.962 120.1704 287.3423)" fill="#FFFFFF" font-family="'Arial'" font-size="8">VOORSTADSLAAN</text>
	
		<rect x="132.1" y="214.7" transform="matrix(0.8696 0.4938 -0.4938 0.8696 131.114 -58.8451)" fill="none" width="89.6" height="8.2"/>
	
		<text transform="matrix(0.8696 0.4938 -0.4938 0.8696 137.1167 198.1875)" fill="#FFFFFF" font-family="'Arial'" font-size="8">WEURTSEWEG</text>
	
		<rect x="114.3" y="122.9" transform="matrix(0.7157 0.6984 -0.6984 0.7157 133.9448 -75.0054)" fill="none" width="89.6" height="8.2"/>
	
		<text transform="matrix(0.7157 0.6984 -0.6984 0.7157 125.8027 97.001)" fill="#FFFFFF" font-family="'Arial'" font-size="8">WAALBANDIJK</text>
</g>
</svg>
